<?xml version="1.0" encoding="utf-8"?><svg version="1.1" id="Layer_1" xmlns="http://www.w3.org/2000/svg" xmlns:xlink="http://www.w3.org/1999/xlink" x="0px" y="0px" viewBox="0 0 226 102" style="enable-background:new 0 0 226 102;" xml:space="preserve"><style type="text/css">.st0{fill:#FBFBF8;}.st1{fill:none;stroke:#EDE5D5;stroke-miterlimit:10;}.st2{fill:#EDE5D5;}</style><path class="st0" d="M0,0v78.8c48.3,0,58.1,22,113,22c55,0,64.1-22,113-22V0H0z"/><path class="st1" d="M6.2,0v73.2c22,0.9,36.4,6.1,50.3,11c15.6,5.6,30.4,10.8,56.5,10.8c26,0,40.6-5.2,56.1-10.8c14-5,28.4-10.2,50.7-11.1V0"/><path class="st2" d="M225,1 M225,0v77.9c-23.3,0.1-37.3,5.2-52.2,10.6C157.2,94,141.1,99.8,113,99.8c-28.2,0-44.4-5.8-60.1-11.5C38,83,23.9,78,1,77.9V0H0v78.8c48.3,0,58.1,22,113,22c55,0,64.1-22,113-22V0H225z"/></svg>